<?xml version="1.0" encoding="UTF-8" standalone="no"?>
<!-- Created with Inkscape (http://www.inkscape.org/) -->
<svg
   xmlns:svg="http://www.w3.org/2000/svg"
   xmlns="http://www.w3.org/2000/svg"
   version="1.0"
   width="748.55902"
   height="748.56403"
   viewBox="0 0 748.559 748.564"
   id="Layer_1"
   xml:space="preserve"><defs
   id="defs96">
	
	
	
	
	
	
	
	
	
	
	
	
	
	
	
	
	
	
	
	
	
	
	
	
	
	
	
	
	
	
	
	
	
	
	
	
	
	
	
	
	
	
	
	
</defs>
<path
   d="M 0,374.285 C 0,167.584 167.561,0 374.285,0 C 580.992,0 748.558,167.584 748.558,374.285 C 748.558,580.998 580.992,748.564 374.285,748.564 C 167.561,748.564 0,580.992 0,374.285"
   style="fill:#067655"
   id="path5" /><path
   d="M 11.033,374.285 C 11.033,173.678 173.66,11.051 374.279,11.051 C 574.892,11.051 737.525,173.678 737.525,374.285 C 737.525,574.892 574.893,737.531 374.279,737.531 C 173.66,737.525 11.033,574.893 11.033,374.285"
   style="fill:white"
   id="path7" /><path
   d="M 374.28125,22.875 C 180.19525,22.875001 22.874999,180.20724 22.875,374.28125 C 22.875001,568.36128 180.18924,725.6875 374.28125,725.6875 C 568.35528,725.68752 725.68751,568.36127 725.6875,374.28125 C 725.68752,180.20725 568.36127,22.875 374.28125,22.875 z M 377.59375,47.90625 C 388.29954,48.010669 398.63563,49.378188 407.6875,53.84375 C 413.61749,59.157748 415.30401,66.149252 415,73.90625 C 413.324,79.390252 410.28126,84.692002 405.40625,88.5 C 411.34224,92.906 417.27951,97.471003 418.1875,105.375 C 419.8695,113.133 417.56226,120.12325 413.15625,125.90625 C 403.88625,136.39425 389.14501,133.68 375.75,134.125 L 340.375,135.0625 L 340.15625,131.84375 L 336.5,51.53125 L 336.34375,49.78125 C 349.43088,49.696313 363.82917,47.771998 377.59375,47.90625 z M 445.5625,56.125 L 473.5625,65.15625 C 467.3165,83.179254 459.11751,100.96075 454.6875,119.96875 C 454.24249,124.69775 457.03451,129.5725 462.4375,130.9375 C 466.17551,132.9945 471.50651,133.3805 474.3125,130.9375 C 486.3355,114.0625 492.02651,93.063004 499.5625,74.125 C 509.14251,77.476998 516.62526,82.283252 525.90625,85.78125 C 516.00427,106.76925 509.91276,131.46275 496.21875,148.71875 C 486.33375,157.39075 470.67151,155.269 458.8125,152.375 C 445.27151,147.51799 430.50726,138.842 426.40625,123.625 C 423.21825,113.207 437.66451,77.482003 445.5625,56.125 z M 283.71875,61.65625 C 292.34398,61.435119 300.40876,63.909377 307.15625,70.875 C 312.62925,76.956999 313.38426,85.460752 313.53125,93.21875 C 312.17724,98.228753 310.92776,103.268 307.59375,107.375 C 314.80675,116.258 328.23001,126.33825 337.5,135.15625 L 336.34375,135.53125 L 308.96875,141.59375 C 299.23075,133.75975 293.72301,128.21325 285.25,122.40625 C 281.60001,122.85125 279.08426,125.00825 275.65625,126.53125 L 285.0625,148.125 L 259.375,162.125 C 248.83401,136.414 235.92601,106.367 226.375,82.25 C 243.00426,75.559252 264.74325,62.142739 283.71875,61.65625 z M 554.625,113.5625 C 570.53615,113.85814 584.77064,120.6125 594.3125,132.3125 C 599.49251,138.6935 602.97602,146.59925 605.25,154.65625 C 598.86299,158.09026 593.99427,161.98875 587.90625,164.71875 C 586.40024,155.29076 581.24377,145.67975 571.96875,140.96875 C 567.55673,138.37875 560.97877,137.949 555.96875,139.625 C 548.20476,142.508 541.54527,149.1795 538.65625,156.9375 C 536.06627,164.3905 538.94777,171.69175 543.21875,177.46875 C 549.14276,184.16574 557.05302,187.66976 566,187.96875 C 561.97998,194.58375 559.77677,198.75751 555.96875,203.9375 C 541.05076,201.80451 527.07651,193.59501 518.5625,179.75 C 511.26147,168.049 510.82576,150.10425 517.21875,137.78125 C 523.90473,124.23425 537.12727,115.57375 551.40625,113.59375 C 552.48106,113.55562 553.56428,113.54279 554.625,113.5625 z M 177.84375,113.84375 L 180.4375,115.4375 C 205.6215,130.8185 231.49501,148.9235 257,163.4375 L 254.375,165.1875 L 234.28125,178.40625 C 226.78725,174.45725 222.41051,171.78925 216.9375,169.28125 L 194.71875,188 C 197.00374,193.48399 199.91176,200.16801 202.34375,206.25 L 182.5,228.4375 L 180.90625,224.9375 L 145.75,141.4375 L 177.84375,113.84375 z M 373.46875,156.375 C 492.98178,156.375 589.875,253.2875 589.875,372.8125 C 589.875,492.32052 492.98175,589.1875 373.46875,589.1875 C 253.95577,589.18754 157.0625,492.3205 157.0625,372.8125 C 157.0625,253.28751 253.95575,156.375 373.46875,156.375 z M 623.5,164.53125 L 639.9375,186.15625 C 632.94748,193.15225 623.68877,199.09026 616.21875,205.78125 C 628.08975,208.35925 641.44902,207.89401 653.625,209.875 C 659.10399,217.797 661.98552,225.39376 667.3125,234.96875 L 622.625,231.8125 C 612.73402,247.3225 603.74477,263.13101 595.21875,279.25 C 589.90473,271.49199 585.80502,261.44726 580.625,252.78125 C 586.41399,241.06224 593.92377,228.68776 599.71875,216.96875 C 589.75775,223.13876 581.01202,231.11901 570.875,237.5 L 555.09375,216.28125 C 576.38673,198.02925 599.32252,181.75251 621.6875,165.1875 L 623.5,164.53125 z M 119.53125,169.78125 L 137.84375,180.53125 C 133.80075,188.89225 128.49625,194.60776 124.78125,202.59375 L 176.78125,236.8125 C 174.03925,244.5645 168.12075,252.18301 163.09375,259.625 L 109.71875,226.3125 C 104.93175,232.6235 101.4805,239.09326 96.6875,247.15625 C 89.691497,242.52125 84.745002,239.45651 79.125,235.4375 C 92.367002,213.36549 104.93525,192.67926 119.53125,169.78125 z M 74.125,253.21875 C 78.678999,255.81874 84.007752,259.78076 88.71875,263.71875 C 79.279749,271.03674 72.582502,281.67976 74.5625,293.84375 C 75.634504,295.66574 76.688002,298.38676 79.125,298.84375 C 86.725001,298.84376 89.320503,290.65201 92.8125,285.625 C 96.925499,276.49599 104.832,266.61651 115.625,265.5625 C 124.9,264.95849 132.83025,267.38651 138.90625,274.6875 C 148.18125,285.80251 146.526,303.71926 142.125,316.65625 C 137.99999,326.23624 131.623,335.97276 122.5,342.21875 L 106.0625,332.1875 C 115.0395,325.96449 124.4745,315.74576 125.6875,304.34375 C 125.6875,300.23674 124.789,294.76951 119.75,294.3125 C 109.262,297.35949 108.17925,309.97101 101.03125,317.125 C 95.558246,322.75601 88.709252,326.99426 80.03125,325.78125 C 71.968253,325.31825 65.117252,320.29826 60.40625,313.90625 C 51.42925,300.22424 55.871752,280.13926 61.34375,269.65625 C 64.700749,263.71525 68.652002,257.79476 74.125,253.21875 z M 659.125,260.3125 C 669.69128,260.18406 679.87052,266.67776 684.65625,275.59375 C 692.55424,288.36174 695.61902,305.25426 691.5,320.78125 L 674.625,319.875 C 676.91598,309.68 678.58552,296.89401 671.4375,288.375 C 669.31047,285.79101 665.52327,284.24801 662.78125,285.625 C 653.50628,295.96702 663.53302,310.88676 657.75,322.59375 C 655.00199,327.92576 650.90377,334.30476 644.96875,336.71875 C 635.37678,340.37476 623.51977,338.55701 616.21875,331.25 C 601.93377,316.344 595.23502,293.21501 604.375,273.75 L 622.15625,273.75 C 619.11523,281.37299 616.99202,292.17926 619.875,301.15625 C 621.38699,304.95924 623.23227,309.82251 627.65625,311.1875 C 642.25227,311.71451 632.34577,290.80651 635.84375,281.0625 C 637.21476,273.76149 641.17702,266.16451 648.625,262.8125 C 652.04525,261.1395 655.60293,260.35532 659.125,260.3125 z M 97.375,407.90625 L 105.59375,432.125 C 114.80475,432.07799 123.6725,432.41051 133.1875,432.1875 L 112,449.90625 C 114.039,457.35924 115.791,465.91026 118.375,475.90625 L 97.375,461.3125 C 88.545003,465.34349 83.242002,470.29501 74.125,475 L 81.4375,449.90625 C 74.505497,444.23425 66.738502,438.83951 60.1875,433.0625 C 69.738501,432.81651 78.109752,433.18801 87.34375,433 C 91.609751,425.02501 93.496003,415.88726 97.375,407.90625 z M 650.28125,408.03125 L 658.46875,432.21875 C 667.66776,432.18376 675.89427,432.45476 686.03125,432.34375 L 664.875,450.03125 C 666.93198,457.46725 668.67802,466.05451 671.25,476.0625 L 650.28125,461.4375 C 641.43922,465.4575 636.12902,470.41401 627,475.125 L 634.28125,450.03125 C 627.36125,444.37125 619.60877,438.96551 613.09375,433.1875 C 622.62072,432.94151 630.99077,433.34426 640.21875,433.15625 C 643.94574,424.84726 646.61927,416.84426 650.28125,408.03125 z M 171.09375,528.03125 C 175.39172,527.95083 179.75776,528.39851 184.09375,529.3125 C 195.77575,532.51149 206.75401,541.32002 213.75,552.125 C 215.584,556.53097 218.21276,560.01502 219.34375,566.625 C 214.48075,569.68398 208.34126,572.19452 202.78125,574.9375 C 201.42726,564.89452 192.60276,555.15252 182.71875,552.5625 C 174.50975,550.52349 165.54475,554.42377 159.46875,561.71875 C 154.44176,567.63673 152.9135,576.14077 154.4375,583.59375 C 158.3985,593.91775 169.3395,601.71877 180.4375,601.71875 L 183.625,601.84375 C 180.596,609.15673 178.63051,612.79627 175.4375,618.28125 C 157.0215,617.65426 138.474,606.86352 131.625,589.0625 C 125.69499,574.6245 128.2865,555.93027 137.5625,543.90625 C 146.0045,533.19252 158.19984,528.27253 171.09375,528.03125 z M 556.4375,532.03125 C 560.8545,534.93226 564.04527,538.73652 568.28125,542.5625 L 569.4375,543.6875 L 542.0625,569.15625 L 551.1875,580.1875 C 558.93948,574.10548 567.30277,567.62102 575.59375,559.875 C 579.85377,563.44898 583.29352,567.64102 587.3125,572.375 C 579.11549,580.191 570.57452,585.50977 563.4375,592.96875 C 566.47852,596.78276 568.82877,601.08627 573.46875,605.65625 L 603,581.3125 L 615.59375,594.34375 C 598.86474,610.22872 580.62427,626.59027 563.28125,639.28125 L 511.71875,572.65625 C 528.15475,558.95726 541.98252,546.48027 556.4375,532.03125 z M 237.21875,577.125 C 253.99992,577.21271 269.24938,585.39533 278.09375,598.65625 C 287.36875,610.52123 287.50176,628.93377 281.71875,642.46875 C 275.26774,656.23876 262.88976,664.99027 249.34375,668.03125 C 232.93775,670.60923 217.40226,665.30927 205.53125,653.90625 C 195.04324,642.34023 189.27976,625.73902 194.59375,609.625 C 199.31075,592.129 216.34176,579.35077 233.84375,577.21875 C 234.97456,577.15175 236.10002,577.11917 237.21875,577.125 z M 501.875,578.125 C 505.31001,582.131 507.30651,586.69127 510.3125,591.53125 L 511.09375,592.96875 L 477.6875,609.71875 L 483.34375,622.84375 C 493.53276,618.95278 502.33776,615.33977 512.46875,610.21875 C 515.55676,614.85978 517.67576,619.81477 520.21875,625.46875 C 511.03075,630.36678 501.51401,634.16152 491.5,638.5625 C 493.36299,643.06252 494.29351,646.34352 497.5625,653.5625 L 532.75,638.5 L 541.21875,654.53125 C 520.69877,665.07827 498.59001,675.64977 478.375,682.96875 L 447.5625,604.5625 C 467.17951,596.03148 483.95701,587.92202 501.875,578.125 z M 304.5625,605.875 C 324.7945,610.246 345.51601,614.05202 365.25,617 C 364.14899,623.19702 363.76901,630.65202 362.75,638.375 C 350.02301,636.24201 337.87551,633.98427 325.6875,632.15625 C 325.0075,638.25027 323.29126,641.91327 322.78125,646.53125 C 333.72024,649.78928 343.84226,650.90977 354.40625,652.84375 L 351.40625,672.40625 C 340.90024,671.04723 329.57551,669.21527 318.8125,666.90625 C 316.42749,675.39025 314.27551,686.07252 311.1875,695.3125 C 302.21051,693.88249 292.68526,691.85352 284.03125,688.4375 L 304.09375,607.53125 L 304.5625,605.875 z M 436.4375,607.78125 C 437.2825,614.01923 439.16626,621.24352 440.53125,628.9375 C 427.73426,630.78348 415.53076,632.30027 403.34375,634.28125 C 404.57376,640.28126 404.01851,644.30502 404.9375,648.875 C 416.3515,648.65198 426.31676,646.62702 436.96875,645.25 L 440.09375,664.75 C 429.67575,666.66003 418.30901,668.39077 407.375,669.46875 C 407.68,678.28676 408.85976,689.07352 408.71875,698.8125 C 399.74775,700.18347 390.06326,701.17152 380.78125,700.5625 L 375.3125,617.375 L 375.21875,615.625 C 395.81474,613.64501 416.75051,610.98027 436.4375,607.78125 z "
   transform="translate(0,-2.441336e-6)"
   style="fill:#067655"
   id="path9" /><path
   d="M 383.959,67.969 C 386.08,70.237 385.641,74.965 384.404,77.555 C 380.461,82.125 373.16,81.955 367.072,81.194 C 367.517,76.032 365.613,71.005 365.994,65.69 C 371.168,66.445 380.156,63.855 383.959,67.969"
   style="fill:#067655"
   id="path21" /><path
   d="M 283.57,88.951 C 285.076,92.754 285.17,98.947 281.929,101.203 L 266.876,107.59 C 263.12,100.682 261.521,95.947 258.937,90.334 C 265.928,87.744 277.934,77.25 283.57,88.951"
   style="fill:#067655"
   id="path23" /><path
   d="M 388.975,102.645 C 390.182,107.977 387.762,113.45 382.582,114.522 C 377.719,115.272 374.074,114.821 368.9,114.967 C 368.138,109.483 367.693,102.188 368.138,97.623 C 375.129,98.537 385.641,94.734 388.975,102.645"
   style="fill:#067655"
   id="path25" /><path
   d="M 199.148,157.863 C 195.046,161.672 190.476,165.316 185.466,168.808 C 181.81,160.136 178.306,152.378 174.509,142.798 C 183.246,147.445 190.922,152.836 199.148,157.863"
   style="fill:#067655"
   id="path29" /><path
   d="M 371.875,171.625 C 339.23278,171.89537 306.86628,179.48305 280.8125,194.375 C 216.4826,227.0821 177.7145,293.53925 172.6875,362.28125 L 174.5,365.9375 C 198.6821,378.8696 214.35349,350.42599 237.9375,353.625 C 243.2526,356.0631 236.87325,360.15824 237.03125,363.65625 C 235.19135,368.21435 228.7895,366.08249 224.6875,367.3125 C 208.5566,374.3026 191.986,387.84425 173.125,380.53125 C 173.125,380.53135 173.26024,381.94174 173.40625,383.96875 L 173.375,383.96875 C 173.767,389.15384 174.50001,398.34376 174.5,398.34375 C 195.64709,405.04784 209.322,382.96649 229.25,385.5625 C 228.78109,389.96859 228.4885,394.68701 226.0625,397.875 C 207.81059,398.80009 196.38475,415.98225 177.21875,414.78125 L 180.875,429.375 C 197.44509,431.05609 208.1115,414.01149 224.6875,415.6875 L 224.25,426.625 C 209.64309,427.99109 200.21675,441.67975 185.46875,442.59375 C 187.43684,476.35584 210.83375,437.41774 225.59375,443.96875 C 226.19684,447.61284 228.34575,451.11749 226.96875,454.9375 C 215.10384,454.77359 207.64851,465.133 197.3125,468.625 C 199.13459,472.87909 200.3575,478.95674 205.0625,480.46875 C 213.89259,476.81884 221.04325,469.08626 231.53125,469.53125 C 230.31934,465.57034 229.25576,460.24202 229.71875,456.75 C 242.94384,460.24309 250.56276,449.88674 259.84375,443.96875 C 261.96484,425.24284 275.03074,410.9645 283.09375,394.6875 C 283.95484,391.09559 284.2465,387.52574 284.1875,383.96875 C 283.7776,364.18185 271.86525,345.04924 281.28125,324.40625 C 284.17635,316.34435 289.19876,305.72251 297.71875,303.4375 C 282.05085,322.1526 284.94725,350.734 293.15625,371.875 C 294.81535,376.1761 295.408,380.17174 295.25,383.96875 C 294.54704,400.65579 279.0215,413.37473 273.0625,428.46875 C 265.62754,443.53379 272.4395,460.73049 280.8125,473.1875 C 268.80054,482.46854 257.69925,494.31999 242.03125,494.625 C 237.63029,492.47504 237.47251,486.4255 235.1875,482.3125 C 225.91754,480.47854 218.48425,486.87851 211.03125,491.4375 L 219.6875,502.375 C 226.07354,499.32804 233.3925,492.81599 240.6875,497.375 C 251.49154,510.15504 230.1675,503.73001 227.4375,511.5 C 230.46654,515.60704 234.1345,518.64798 237.9375,522 C 242.34354,520.62904 245.8495,517.12502 251.1875,517.875 C 253.31454,520.45904 255.74226,523.04674 256.65625,526.09375 L 248.4375,531.125 C 254.37254,537.20708 261.83174,542.99598 268.96875,545.75 C 273.23479,531.43004 284.63675,520.346 289.96875,506.5 C 291.03479,501.17404 291.32852,494.77351 292.6875,490.0625 C 308.04454,513.93954 275.81251,528.09201 275.8125,550.75 C 279.16954,553.78508 283.26976,555.44898 287.21875,557.125 C 286.60879,539.33608 301.521,527.93401 307.75,512.875 C 319.16404,488.99204 292.84176,474.08549 284.46875,454.9375 C 276.55879,437.58154 287.66799,421.28899 298.625,408.375 C 306.25404,400.13704 308.23651,392.07274 307.5625,383.96875 C 306.0446,365.61085 290.91,347.17751 297.25,326.6875 C 300.9071,313.9136 306.36875,298.689 319.59375,293.375 C 310.00785,304.4671 304.98976,317.40226 304.09375,332.15625 C 301.42785,352.20135 317.49224,366.13875 318.40625,383.96875 C 318.5763,387.5258 318.15199,391.23024 316.875,395.15625 C 309.42205,411.2813 292.54649,423.42175 292.6875,442.59375 C 290.70755,467.8238 323.71849,477.43149 320.0625,503.3125 C 319.76355,525.82455 293.91225,538.26575 299.53125,562.59375 L 313.6875,567.1875 C 305.62455,539.8126 334.06674,524.57374 334.21875,500.09375 C 335.5838,479.3988 313.38101,468.61349 307.75,450.8125 C 301.82605,433.16355 314.74599,419.03099 324.625,405.625 C 329.48305,398.06105 330.62275,390.92974 329.84375,383.96875 C 327.86285,366.71885 313.93776,350.56876 314.59375,331.71875 C 314.28385,314.38085 321.8785,297.33825 336.9375,289.28125 C 332.3916,295.80835 327.21501,302.04276 324.625,309.34375 C 315.1911,334.90785 331.02324,356.81675 338.78125,378.71875 C 339.37835,380.52985 339.79724,382.26976 340.03125,383.96875 C 342.94931,404.26581 322.15676,417.22299 318.21875,435.75 C 312.89281,458.26206 337.09225,468.5975 342.40625,487.3125 C 353.82031,517.86956 316.86526,535.67603 325.53125,566.25 C 325.37931,575.22712 335.87499,571.74052 341.5,573.5625 C 327.81306,548.32062 349.88251,527.47875 356.5625,505.59375 C 364.02156,482.15681 341.68726,468.91751 332.40625,450.8125 C 322.65631,430.43456 344.84975,417.80499 349.71875,400.625 C 353.81381,388.90606 364.33751,399.72074 371.1875,398.34375 C 380.46856,400.03781 388.51726,390.8865 396.28125,397.4375 C 400.07231,412.95356 418.01024,422.53126 418.15625,439.40625 C 417.54731,465.55031 379.69576,479.24375 391.71875,507.84375 C 401.60381,527.77781 418.46876,550.58251 407.21875,573.5625 L 421.34375,570.375 C 430.77681,546.79112 413.30451,528.67625 404.9375,509.65625 C 397.33856,487.91831 416.35901,471.6485 427.75,454.9375 C 438.56706,434.69956 421.22875,418.09351 411.34375,402.4375 C 407.93381,395.99256 407.23651,389.87474 408.0625,383.96875 C 409.8036,371.44785 418.37326,359.809 422.28125,348.125 C 430.64835,328.2091 425.92725,303.43399 410.40625,288.375 L 410.875,287.90625 C 418.6331,292.47635 425.627,300.5335 429.125,308.4375 C 442.4371,335.2086 423.39849,358.91975 418.6875,383.96875 L 418.1875,386.9375 C 417.73654,404.59754 432.19149,412.96075 439.1875,427.09375 C 450.88854,449.90479 430.21726,466.03274 418.65625,483.21875 C 399.93529,515.31079 444.66026,534.16399 435.53125,566.25 L 449.21875,561.6875 C 452.71079,544.48458 439.77324,530.52325 431.40625,516.53125 C 419.85729,493.10029 440.54124,475.00777 452.40625,457.21875 C 462.90029,435.01179 444.65624,416.29501 434.15625,399.25 C 430.79929,394.34604 429.73824,389.17174 430.03125,383.96875 L 430.0625,383.96875 C 430.6136,374.00785 436.10375,363.91049 440.09375,355.4375 C 448.00485,334.1336 442.5215,308.30076 428.6875,292.46875 C 437.9686,296.27785 444.79074,306.633 447.84375,315.75 C 458.79585,338.4141 445.40601,361.07601 441,382.375 L 440.96875,383.96875 C 440.79982,404.39482 460.152,415.68325 465.625,433.90625 C 470.95707,452.77432 455.91449,465.85151 446.9375,479.5625 C 420.01357,507.55857 461.99424,528.54474 461.53125,556.21875 C 465.49232,554.54889 470.65251,553.76153 472.9375,549.8125 C 470.95757,534.46157 457.88525,523.64825 452.40625,509.65625 C 452.10732,502.97032 450.58025,494.74374 455.15625,489.59375 L 456.0625,490.5 C 454.39257,512.84807 473.86925,526.39473 479.78125,545.71875 C 486.64232,541.58889 493.77525,537.67575 499.40625,531.59375 C 497.28532,529.45582 494.09575,527.79248 491.21875,526.5625 C 489.67182,523.21657 494.09176,520.01577 496.21875,516.96875 L 508.96875,521.53125 C 512.77182,518.02732 516.91028,515.16375 519.03125,510.59375 C 514.46132,507.39482 509.44174,505.08949 503.96875,504.1875 C 503.79382,500.69557 505.77149,497.96326 508.0625,495.53125 C 515.83857,495.23332 521.92223,498.87125 528.15625,501.90625 C 531.49032,498.87732 535.17397,494.93125 536.375,490.53125 L 519.9375,482.3125 C 508.68157,475.16357 511.723,490.66426 506.25,494.15625 C 490.89307,493.54732 479.947,482.74224 468.375,473.15625 C 469.74607,466.17232 475.22249,460.86101 477.0625,454 C 483.75357,431.65307 465.95349,414.78677 456.0625,396.96875 C 453.58357,392.60982 452.65851,388.28674 452.6875,383.96875 C 452.7696,371.85785 460.18599,359.78674 460.625,347.21875 C 464.4221,330.94685 456.8085,315.3045 450.5625,302.0625 C 454.8336,304.6526 459.416,308.12525 462,312.53125 C 470.5131,329.26535 472.94549,352.559 465.1875,370.5 C 463.2776,375.3051 462.635,379.77974 462.875,383.96875 C 464.12308,404.98083 487.73599,419.695 488,442.125 C 497.11208,448.98008 505.35726,460.40599 517.65625,456.75 C 518.57633,461.15608 516.12927,465.84376 516.28125,469.96875 C 527.23233,469.35883 534.54501,477.59175 544.125,480.46875 C 546.40416,476.51383 550.3615,472.55501 550.0625,468.125 C 539.26966,464.93708 531.51199,454.31099 519.5,454 L 521.75,443.5 C 534.38808,443.19508 543.66023,453.861 555.53125,456.75 C 559.63941,453.69108 560.998,448.0785 562.375,443.0625 C 547.77916,440.78358 537.28348,428.44126 522.6875,426.15625 C 522.98058,422.52933 521.92377,418.28276 523.59375,415.21875 C 537.43391,415.21883 546.56051,426.34001 559.1875,429.375 C 571.35166,435.15308 567.383,420.70276 570.125,415.21875 C 550.80116,415.99283 539.11524,398.05249 520.40625,397.4375 L 518.125,386 C 538.34616,382.67208 552.03298,404.73651 572.875,398.8125 C 574.88516,393.53858 574.40199,389.11374 574.25,383.96875 L 574.21875,380.53125 C 550.64595,389.82435 535.14303,366.24824 512.625,366.40625 C 509.7191,363.06035 508.96475,358.96099 507.59375,355 C 532.99985,346.8031 549.73849,383.41749 574.6875,364.5625 C 572.7247,333.6786 566.15402,304.66449 551.875,278.8125 C 536.9512,249.2986 509.44549,220.23075 480.6875,202.59375 C 451.07651,181.63104 411.27091,171.29869 371.875,171.625 z M 373.46875,184.34375 C 378.48876,191.18677 380.15825,200.15175 384.40625,207.59375 L 409.0625,208.96875 L 408.59375,211.25 L 390.34375,228.59375 C 393.52577,236.35777 396.7385,244.134 399.9375,251.875 C 413.77751,243.83001 427.021,233.7655 443.75,232.6875 C 442.22703,241.52351 435.5355,250.818 436.4375,259.625 C 446.78552,256.73602 456.21275,250.3395 467.46875,250.9375 C 460.46076,263.87552 450.26625,276.8245 449.65625,292.9375 C 434.29328,287.17151 418.4915,280.1685 401.3125,277.4375 C 364.65653,271.19152 329.3435,279.22975 299.0625,293.84375 C 296.48451,278.48078 289.03525,265.11675 279.90625,252.34375 C 285.37928,250.51577 292.07575,253.5215 297.71875,255.0625 C 302.43576,256.41652 306.38525,259.6365 311.40625,260.5625 C 312.30226,251.43351 306.9845,242.4305 303.1875,234.0625 C 305.77153,232.08252 309.89225,233.59925 312.78125,234.53125 C 324.78726,239.08427 335.57925,246.22425 346.53125,252.78125 C 352.15626,246.22427 354.2775,236.797 356.5625,228.125 L 337.875,211.25 L 337.875,209.4375 L 362.5,208.0625 C 366.60203,200.31052 369.36175,192.10175 373.46875,184.34375 z M 214.1875,266.90625 C 215.60145,266.99528 217.17375,268.1825 218.3125,268.75 C 230.0375,277.87899 235.66025,290.49775 237.03125,304.34375 C 251.77925,298.70675 271.83625,288.9655 287.65625,299.3125 C 284.29924,304.02349 277.7965,306.62375 273.0625,310.71875 C 265.31649,318.32375 255.875,327.6075 250.25,337.1875 C 231.236,333.3785 216.0295,344.489 200.0625,350.875 C 193.98051,352.08199 185.92125,352.69475 180.90625,348.59375 C 195.96524,323.79075 217.22125,300.97625 211.90625,268.28125 C 212.53475,267.19562 213.33913,266.85283 214.1875,266.90625 z M 534.5625,267.375 C 536.53151,267.674 537.89725,269.8225 537.28125,271.9375 C 531.36325,302.96253 552.6405,324.86875 566.9375,348.59375 C 550.51954,359.55075 534.97275,342.6645 519.46875,338.5625 C 512.62473,337.50152 504.58825,336.59025 498.03125,337.65625 C 488.62126,323.06624 475.988,309.36525 460.625,301.15625 C 461.52702,296.14626 468.52525,295.82775 473.40625,295.21875 C 486.94125,293.86477 498.79725,299.467 509.90625,305.25 C 512.03325,300.24001 512.9255,294.59625 514.4375,289.28125 C 518.10552,280.30426 525.2865,271.166 534.5625,267.375 z M 371.8125,283.78125 C 372.64368,283.76435 373.47766,283.77335 374.3125,283.78125 C 378.76515,283.82359 383.26229,284.18829 387.59375,284.71875 C 396.42478,286.99777 406.15829,290.81704 410.40625,300.25 C 410.87529,302.83402 413.45729,305.11104 411.78125,308 C 402.80429,305.25202 392.61554,306.78329 383.9375,310.28125 C 376.17354,316.0583 377.39404,327.92529 379.375,336.28125 L 381.6875,338.125 C 385.48453,337.20502 385.63479,332.32804 388.96875,331.25 C 394.60577,332.62703 402.36754,334.61304 407.6875,331.25 C 412.39853,331.40803 412.24154,337.95454 412.6875,341.3125 C 409.34754,358.95552 401.91579,378.10779 383.96875,386.46875 C 376.50978,390.12479 366.89804,387.67179 359.75,385.09375 C 342.11302,374.59979 332.23879,353.79354 334.21875,334.9375 C 335.58977,332.04854 337.71154,329.73779 341.0625,331.71875 C 348.19354,336.58177 355.95004,327.93504 362.5,334 C 370.40404,330.50204 365.68754,320.77579 365.6875,313.46875 C 359.30052,305.24778 348.36129,306.44754 338.78125,307.0625 C 334.51527,304.46654 339.10829,300.39504 340.15625,297.5 C 347.43223,287.23722 359.34524,284.03524 371.8125,283.78125 z M 342.875,314.75 C 348.79926,314.53264 354.63152,316.76708 357.46875,321.21875 L 357.46875,323.0625 C 352.30078,322.59952 343.94177,317.42977 339.21875,323.96875 C 336.18378,325.3278 335.72727,321.81177 336.03125,319.84375 C 335.42227,317.56479 336.80127,315.75252 338.78125,315.3125 C 340.11966,314.99828 341.50789,314.80019 342.875,314.75 z M 401.25,315.25 C 405.49159,315.16307 409.9254,315.48653 411.78125,318.9375 C 411.64029,320.77752 412.10178,322.90278 409.96875,323.96875 C 404.18578,321.6898 396.12678,318.48553 390.34375,323.0625 C 386.99178,315.90852 396.28078,317.43353 399.46875,315.3125 C 400.05915,315.29128 400.64409,315.26245 401.25,315.25 z M 374.3125,345.0625 C 371.06203,345.06103 367.68751,346.012 365.25,347.6875 C 365.54903,348.90653 364.49826,350.72876 366.15625,351.34375 C 371.02528,350.28878 379.8375,353.93325 382.5625,348.15625 C 380.66403,346.02978 377.56301,345.06401 374.3125,345.0625 z M 357.03125,360 L 357.46875,362.75 C 363.40978,366.70503 365.2418,373.41654 373.46875,372.8125 C 380.76378,373.24653 386.24204,366.41055 389.875,360.9375 C 380.00203,359.57153 367.9883,361.68205 357.03125,360 z "
   transform="translate(0,-2.441336e-6)"
   style="fill:#010101"
   id="path35" /><path
   d="M 258.932,609.627 C 264.082,621.639 258.159,633.498 249.791,642.012 C 244.477,646.272 237.51,648.95 230.52,646.366 C 226.12,644.233 220.676,640.343 219.457,635.62 C 216.105,623.456 221.666,612.054 230.174,603.686 C 235.348,599.42 242.801,596.995 249.328,600.036 C 253.289,601.242 257.701,605.666 258.932,609.627"
   style="fill:#067655"
   id="path81" /><g
   id="g91">
		<path
   d="M 621.193,688.816 C 633.082,688.816 643.277,698.062 643.277,710.607 C 643.277,723.269 633.093,732.503 621.193,732.503 C 609.181,732.503 598.992,723.269 598.992,710.607 C 598.992,698.063 609.182,688.816 621.193,688.816 z M 621.193,692.35 C 611.062,692.35 603.234,700.184 603.234,710.608 C 603.234,721.26 611.068,728.977 621.193,728.977 C 631.207,728.977 639.035,721.272 639.035,710.608 C 639.029,700.184 631.207,692.35 621.193,692.35 z M 616.535,723.27 L 612.656,723.27 L 612.656,698.063 L 622.306,698.063 C 628.312,698.063 631.259,700.301 631.259,705.241 C 631.259,709.782 628.429,711.721 624.661,712.19 L 631.845,723.264 L 627.609,723.264 L 620.894,712.313 L 616.529,712.313 L 616.529,723.27 L 616.535,723.27 L 616.535,723.27 z M 616.535,709.137 L 621.135,709.137 C 625.846,709.137 627.375,707.778 627.375,705.006 C 627.375,702.598 626.197,701.238 621.779,701.238 L 616.535,701.238 L 616.535,709.137 z "
   style="fill:#010101"
   id="path93" />
	</g>
</svg>